<?xml version="1.0" standalone="no"?>
<!DOCTYPE svg PUBLIC "-//W3C//DTD SVG 20010904//EN"
 "http://www.w3.org/TR/2001/REC-SVG-20010904/DTD/svg10.dtd">
<svg version="1.0" xmlns="http://www.w3.org/2000/svg"
 width="1024.000000pt" height="1024.000000pt" viewBox="0 0 1024.000000 1024.000000"
 preserveAspectRatio="xMidYMid meet">
<metadata>
Created by potrace 1.14, written by Peter Selinger 2001-2017
</metadata>
<g transform="translate(0.000000,1024.000000) scale(0.100000,-0.100000)"
fill="#000000" stroke="none">
<path d="M6510 8293 c-35 -7 -67 -18 -72 -25 -4 -7 -8 -10 -8 -6 0 4 -10 -3
-22 -15 -13 -12 -34 -31 -48 -42 -71 -56 -137 -170 -139 -241 -2 -75 -7 -85
-43 -89 -13 -2 -41 -8 -63 -13 -22 -6 -53 -14 -70 -17 -16 -3 -35 -7 -41 -8
-7 -2 -20 -9 -30 -17 -9 -8 -19 -13 -21 -11 -4 3 -44 -11 -101 -36 -18 -8 -71
-36 -118 -64 -47 -27 -90 -49 -95 -49 -5 0 -9 -4 -9 -10 0 -5 -6 -10 -13 -10
-8 0 -22 -9 -32 -20 -10 -11 -24 -20 -32 -20 -7 0 -13 -4 -13 -10 0 -5 -7 -10
-15 -10 -8 0 -15 -4 -15 -8 0 -4 -12 -15 -27 -24 -16 -10 -40 -27 -55 -40 -14
-13 -41 -34 -58 -48 -32 -26 -54 -43 -87 -70 -10 -8 -34 -26 -53 -40 -19 -13
-46 -37 -59 -52 -13 -15 -30 -28 -38 -28 -8 0 -11 -4 -8 -10 3 -5 2 -10 -3
-10 -5 0 -44 -33 -86 -74 -43 -41 -82 -73 -89 -72 -21 3 -107 82 -107 98 0 5
-5 8 -11 8 -6 0 -32 21 -58 48 -63 63 -187 172 -197 172 -5 0 -31 23 -58 50
-27 28 -53 50 -59 50 -5 0 -20 11 -33 25 -13 14 -28 25 -34 25 -6 0 -13 7 -16
15 -4 8 -12 15 -20 15 -8 0 -19 9 -26 20 -7 11 -16 20 -21 20 -7 0 -86 49 -97
60 -12 12 -150 100 -150 95 0 -3 -9 3 -20 13 -12 9 -24 17 -28 16 -4 0 -16 8
-26 18 -11 10 -26 18 -33 18 -7 0 -13 5 -13 10 0 6 -3 9 -7 8 -11 -2 -37 9
-113 47 -58 28 -88 39 -140 52 -15 3 -200 5 -232 1 -10 -1 -18 -4 -18 -8 0 -3
-18 -16 -39 -28 -22 -13 -51 -36 -65 -53 -14 -17 -26 -27 -26 -23 0 3 -10 -6
-22 -22 -12 -16 -26 -32 -31 -35 -5 -3 -8 -8 -7 -10 0 -2 -6 -22 -15 -43 -9
-21 -17 -47 -18 -58 -1 -11 -16 -25 -39 -35 -20 -9 -35 -20 -32 -25 3 -4 0 -8
-7 -8 -18 0 -116 -95 -112 -108 1 -4 -7 -21 -18 -39 -35 -56 -48 -112 -50
-205 -1 -94 33 -181 102 -258 50 -56 60 -79 53 -127 -11 -87 -5 -283 12 -353
4 -14 12 -79 19 -145 7 -66 16 -136 20 -155 8 -47 -13 -60 -135 -86 -14 -3
-48 -12 -76 -20 -28 -8 -60 -17 -70 -19 -11 -2 -44 -11 -74 -20 -30 -9 -62
-17 -70 -20 -8 -2 -28 -8 -43 -14 -15 -6 -31 -10 -35 -9 -4 1 -25 -6 -46 -15
-22 -10 -51 -20 -65 -24 -13 -3 -36 -12 -50 -19 -14 -8 -33 -14 -41 -14 -9 0
-22 -6 -29 -12 -11 -11 -13 -10 -7 0 4 7 -10 3 -30 -9 -21 -11 -47 -23 -58
-25 -12 -2 -22 -8 -24 -14 -2 -6 -7 -8 -12 -5 -5 3 -16 -2 -24 -11 -9 -8 -16
-13 -16 -9 0 3 -11 -2 -25 -11 -14 -9 -32 -14 -40 -10 -9 3 -13 2 -10 -4 7
-11 -6 -13 -29 -4 -9 3 -16 12 -16 20 0 8 -4 14 -10 14 -15 0 -12 27 5 44 9 8
15 18 15 21 -1 3 2 20 6 38 13 56 11 121 -5 162 -8 22 -18 42 -21 45 -4 3 -15
19 -24 37 -18 37 -90 113 -106 113 -5 0 -10 4 -10 9 0 5 -8 11 -17 15 -10 3
-49 17 -88 30 -47 16 -76 21 -91 16 -12 -5 -24 -7 -26 -4 -3 2 -23 -2 -46 -10
-22 -8 -43 -12 -46 -9 -3 4 -6 1 -6 -5 0 -7 -4 -11 -9 -9 -10 2 -120 -75 -121
-85 0 -4 -13 -26 -29 -50 -15 -24 -33 -63 -39 -86 -19 -78 -3 -236 24 -246 8
-3 14 -14 14 -24 0 -10 11 -25 25 -32 14 -7 25 -18 25 -24 0 -13 58 -52 125
-84 49 -23 126 -29 218 -17 15 2 25 0 22 -5 -3 -5 1 -10 7 -13 10 -3 10 -9 -1
-30 -8 -15 -16 -25 -18 -23 -6 5 -73 -69 -73 -79 0 -5 -7 -16 -16 -26 -37 -42
-63 -231 -42 -314 11 -47 47 -123 68 -146 8 -9 37 -44 64 -78 28 -33 52 -61
55 -61 4 0 26 -18 51 -40 70 -63 73 -66 105 -86 17 -10 32 -21 35 -24 19 -20
99 -68 104 -63 3 3 6 1 6 -5 0 -6 84 -53 187 -104 104 -51 190 -95 193 -98 3
-3 41 -21 85 -39 44 -18 94 -39 110 -46 67 -30 133 -54 190 -69 78 -22 126
-47 116 -61 -12 -15 -34 -86 -36 -115 -1 -14 -5 -47 -10 -75 -4 -27 -8 -68
-10 -90 -3 -42 -12 -134 -21 -220 -15 -147 -19 -441 -9 -650 10 -201 16 -260
39 -360 1 -5 6 -26 10 -45 7 -35 12 -48 37 -105 7 -16 13 -32 14 -35 2 -12 59
-95 66 -98 5 -2 9 -8 9 -13 0 -25 116 -119 146 -119 8 0 25 -5 37 -12 35 -19
45 -20 177 -20 101 -1 139 4 199 22 41 12 81 23 90 25 28 6 203 82 261 113 30
16 84 44 120 63 36 19 67 37 70 40 3 4 30 21 60 40 30 18 58 37 61 42 3 5 10
9 15 9 10 1 72 38 116 69 15 10 30 19 33 19 3 0 16 10 29 23 13 12 36 31 51
42 24 17 75 55 110 83 6 4 33 24 60 44 28 20 59 47 71 60 30 32 62 58 75 58 5
0 8 3 5 8 -2 4 7 12 20 19 19 9 24 8 24 -3 0 -8 3 -13 8 -12 4 1 32 -22 63
-52 67 -65 119 -110 124 -107 2 1 25 -17 52 -40 102 -89 193 -161 231 -183 15
-8 35 -23 47 -33 23 -21 75 -50 75 -42 0 5 160 -103 170 -114 3 -4 30 -17 60
-31 30 -14 61 -31 68 -37 7 -7 22 -13 31 -13 34 0 45 -27 56 -133 5 -57 42
-157 57 -157 5 0 8 -6 8 -14 0 -15 109 -116 126 -116 6 0 17 -7 24 -15 7 -9
18 -14 24 -12 6 2 22 0 36 -6 14 -6 66 -11 115 -12 92 -3 164 13 192 41 8 8
19 14 24 14 13 0 89 78 108 111 79 133 91 257 39 422 -6 20 -15 37 -20 37 -4
0 -8 4 -8 10 0 10 -18 33 -60 78 -122 129 -376 142 -505 27 -16 -15 -43 -35
-60 -46 -16 -10 -29 -22 -29 -26 5 -33 -38 -44 -79 -21 -12 7 -29 13 -37 14
-23 4 -196 92 -244 125 -24 16 -49 29 -55 29 -6 0 -11 5 -11 10 0 6 -5 10 -11
10 -7 0 -34 16 -60 35 -27 19 -54 35 -59 35 -6 0 -10 4 -10 9 0 6 -18 20 -40
32 -22 13 -40 27 -40 33 0 5 -3 7 -6 3 -6 -6 -32 15 -113 91 -25 23 -49 42
-54 42 -4 0 -5 5 -2 10 3 6 -2 10 -12 10 -10 0 -24 9 -31 20 -7 11 -19 20 -27
20 -8 0 -15 6 -15 14 0 8 -7 16 -15 20 -29 11 -20 26 51 86 16 14 40 33 54 42
45 31 184 158 172 158 -4 0 10 12 31 27 20 14 37 30 37 35 0 5 3 8 8 6 4 -2
23 13 43 34 21 21 36 38 34 38 -6 0 91 93 112 107 12 8 26 12 32 9 5 -3 40 -8
78 -11 37 -3 84 -7 103 -10 19 -3 55 -8 80 -11 25 -3 56 -7 69 -9 13 -2 67 -7
120 -10 105 -7 128 -10 151 -19 17 -7 87 -14 205 -21 100 -6 166 -11 275 -20
95 -9 456 -9 510 -1 19 3 73 8 120 11 47 3 96 8 110 10 14 3 36 8 50 10 14 3
43 8 64 10 21 3 43 8 48 11 7 5 41 10 106 16 6 1 12 5 12 10 0 4 3 7 8 6 4 0
14 1 22 4 8 3 36 13 63 23 26 9 47 21 47 26 0 5 4 9 10 9 5 0 18 8 28 17 10
10 29 25 42 33 56 37 110 106 110 143 0 9 5 17 11 17 5 0 8 4 5 9 -3 5 11 3
32 -4 94 -31 248 -9 300 43 12 13 22 20 22 15 0 -14 70 101 82 136 7 20 13 72
12 116 0 67 -5 90 -29 142 -16 34 -32 60 -36 57 -4 -2 -10 4 -14 15 -6 20 -54
57 -67 53 -5 -1 -8 2 -8 7 0 11 -43 28 -90 37 -69 12 -126 10 -172 -7 -27 -9
-48 -14 -48 -11 0 4 -4 2 -8 -4 -4 -5 -25 -21 -47 -34 -50 -30 -69 -54 -90
-107 -15 -39 -18 -42 -38 -31 -25 13 -57 47 -57 60 0 4 -7 8 -15 8 -8 0 -15 4
-15 10 0 5 -27 38 -60 72 -33 34 -60 65 -60 70 0 4 -4 8 -10 8 -5 0 -36 26
-68 58 -32 31 -78 74 -100 95 -23 21 -42 42 -42 47 0 6 -3 9 -7 8 -15 -3 -43
14 -37 23 3 5 1 9 -4 9 -4 0 -24 14 -42 30 -18 17 -38 30 -42 30 -5 0 -6 5 -3
10 3 6 1 10 -4 10 -10 0 -47 29 -87 68 -7 6 -15 12 -18 12 -15 0 -55 52 -50
65 4 8 42 51 85 95 43 44 79 84 79 90 0 6 5 8 11 5 6 -4 13 2 16 13 3 11 12
23 20 26 8 3 12 10 9 15 -3 4 3 16 14 26 11 10 20 24 20 31 0 7 4 14 9 16 5 2
30 38 55 80 59 100 69 157 51 273 -3 17 -8 53 -13 80 -9 58 -40 103 -109 161
-26 21 -57 49 -68 60 -19 19 -79 56 -95 59 -3 1 -23 12 -45 25 -21 14 -44 25
-50 26 -5 1 -23 7 -40 14 -16 6 -30 11 -30 10 0 -1 -13 4 -30 10 -45 18 -169
50 -174 45 -2 -3 -10 0 -18 6 -10 9 -10 15 -2 25 6 7 12 37 14 66 2 29 6 78
10 108 3 30 8 102 11 160 4 107 8 161 17 240 17 148 23 424 12 560 -5 69 -11
115 -15 115 -3 0 -10 42 -12 69 0 17 4 32 10 34 7 2 10 8 6 13 -3 5 -1 9 4 9
19 0 32 156 18 225 -10 52 -20 81 -30 94 -6 8 -10 15 -8 15 19 6 -80 136 -104
136 -5 0 -20 12 -33 26 -25 26 -100 70 -113 66 -5 -1 -8 2 -8 7 0 5 -8 8 -17
6 -10 -1 -22 0 -28 3 -19 11 -152 8 -215 -5z m-2847 -559 c12 -4 31 -8 42 -10
21 -3 130 -32 155 -42 8 -3 17 -6 20 -7 55 -19 108 -45 157 -77 23 -15 44 -28
48 -28 3 0 33 -18 65 -40 32 -22 64 -40 69 -40 6 0 16 -9 23 -20 7 -11 18 -20
25 -20 7 0 13 -4 13 -8 0 -5 21 -20 47 -33 52 -26 50 -24 141 -99 34 -29 62
-56 62 -61 0 -5 18 -20 40 -34 37 -24 116 -94 217 -194 l45 -43 -34 -36 c-18
-19 -41 -43 -50 -53 -9 -9 -18 -15 -21 -13 -2 3 -22 -17 -43 -43 -21 -27 -46
-56 -54 -66 -8 -10 -42 -47 -75 -81 -33 -34 -73 -81 -89 -104 -16 -23 -33 -42
-38 -42 -5 0 -7 -4 -4 -8 3 -5 -16 -32 -42 -61 l-47 -51 -50 17 c-27 10 -61
17 -75 16 -88 -5 -139 -12 -165 -23 -16 -6 -30 -11 -30 -10 0 1 -18 -5 -40
-14 -22 -9 -42 -15 -45 -14 -3 2 -16 -7 -29 -19 -13 -12 -27 -20 -31 -18 -3 2
-31 -20 -61 -49 -65 -63 -102 -106 -91 -106 4 0 1 -4 -6 -8 -25 -17 -50 -136
-47 -229 2 -81 19 -167 35 -186 9 -10 -42 -116 -95 -197 -52 -79 -85 -141 -85
-157 0 -6 -5 -15 -10 -18 -6 -4 -10 -3 -9 2 1 4 0 15 -3 23 -14 39 -29 99 -32
135 -3 22 -5 40 -6 40 -2 0 -17 62 -25 109 -3 16 -10 36 -15 46 -5 9 -9 40 -8
68 0 28 -3 55 -6 61 -7 10 52 30 109 37 17 2 51 11 78 20 44 15 47 18 48 52 2
119 16 164 83 271 30 47 30 47 14 49 -7 0 -22 3 -33 5 -11 2 -24 2 -30 -1 -5
-3 -21 -7 -35 -9 -21 -3 -58 -9 -67 -12 -2 -1 -5 -1 -8 -1 -2 -1 -20 -7 -40
-16 -19 -8 -38 -14 -42 -14 -9 0 -67 -9 -98 -15 -16 -3 -20 2 -21 28 -1 18 -4
43 -8 57 -7 30 -18 97 -21 130 -1 14 -3 25 -5 25 -5 0 -21 184 -24 280 l-3 90
56 2 c72 1 103 8 170 39 61 28 164 111 155 125 -3 5 0 8 8 7 7 -2 12 5 12 14
-1 10 2 16 6 13 8 -5 17 10 61 96 36 71 26 222 -19 288 -11 14 -22 34 -25 44
-4 9 -10 17 -16 17 -5 0 -11 9 -14 20 -3 11 -13 20 -22 20 -9 0 -13 5 -10 10
3 6 1 10 -5 10 -7 0 -34 21 -62 48 -27 26 -67 56 -90 68 -45 23 -42 29 26 49
41 12 89 12 129 -1z m2597 -80 c0 -35 177 -184 219 -184 11 0 22 -4 25 -8 18
-29 272 -12 315 22 12 9 13 8 7 -3 -5 -7 -10 -57 -12 -110 -2 -53 -6 -123 -9
-156 -3 -33 -8 -80 -10 -105 -2 -25 -4 -45 -5 -45 -1 0 -3 -13 -4 -30 -2 -16
-6 -58 -10 -92 -5 -35 -7 -64 -5 -65 1 -2 -2 -12 -8 -23 -6 -11 -14 -37 -17
-59 -4 -21 -8 -41 -10 -45 -4 -6 -14 -61 -22 -121 -1 -14 -5 -41 -8 -60 -13
-89 -18 -137 -19 -158 -1 -22 -3 -23 -76 -16 -85 7 -549 12 -568 6 -7 -2 -10
-9 -6 -16 4 -8 2 -8 -7 1 -7 6 -18 9 -25 7 -7 -3 -20 7 -29 21 -9 14 -21 23
-26 20 -4 -3 -6 4 -3 15 3 11 1 20 -4 20 -5 0 -27 17 -49 38 -58 54 -94 83
-94 75 0 -3 -8 1 -18 10 -10 10 -50 28 -88 41 -87 29 -248 31 -301 3 -18 -10
-33 -14 -33 -10 0 5 -4 3 -8 -2 -4 -6 -31 -23 -60 -38 -55 -30 -104 -72 -94
-81 3 -3 0 -6 -7 -6 -22 0 -74 -67 -102 -134 -15 -36 -26 -66 -24 -66 2 0 -2
-19 -9 -42 -8 -27 -11 -79 -8 -138 5 -127 5 -130 14 -130 4 0 8 -7 8 -15 0
-29 86 -158 136 -204 47 -42 157 -109 167 -100 2 2 11 -2 20 -9 9 -8 36 -15
59 -17 24 -2 45 -4 48 -5 13 -5 37 -5 63 2 15 3 27 4 27 0 0 -4 11 -7 24 -7
13 0 22 3 19 8 -2 4 1 7 6 7 6 0 11 -5 11 -10 0 -7 8 -6 23 1 12 7 22 11 22 9
0 -10 76 24 85 38 6 11 10 12 10 4 0 -10 3 -10 14 0 8 7 12 16 9 20 -2 4 2 5
10 2 13 -5 117 83 117 100 0 4 14 20 30 36 17 17 28 30 24 30 -3 0 0 7 7 17 8
9 13 17 11 17 -9 3 12 35 25 40 13 5 14 4 3 -9 -11 -13 -10 -15 2 -10 8 3 28
-9 49 -30 19 -19 37 -35 40 -35 3 0 54 -46 113 -102 59 -56 120 -110 135 -119
27 -16 28 -16 46 8 25 32 29 62 11 82 -77 87 -340 331 -357 331 -4 0 -6 -7 -2
-16 5 -14 3 -15 -17 -4 -12 7 -19 15 -14 19 5 3 10 14 12 25 2 13 -1 16 -10
10 -10 -6 -10 -4 1 9 11 14 11 17 0 18 -10 0 -10 2 -2 5 7 3 9 12 6 21 -4 11
-2 14 5 9 8 -5 9 -1 3 16 -5 13 -5 33 0 46 5 12 5 22 0 22 -17 0 -6 31 13 35
48 12 263 7 416 -9 102 -11 114 -14 118 -25 2 -6 8 -9 13 -5 5 3 9 -6 9 -20 0
-14 -5 -26 -11 -26 -5 0 -8 -3 -5 -8 2 -4 -2 -34 -10 -67 -8 -33 -17 -69 -19
-80 -3 -11 -9 -21 -15 -23 -6 -2 -8 -7 -6 -11 3 -4 -2 -30 -10 -57 -9 -27 -17
-56 -19 -64 -2 -8 -4 -16 -4 -17 -1 -2 -1 -6 -2 -10 0 -5 -4 -12 -9 -18 -4 -5
-11 -26 -15 -45 -4 -19 -10 -39 -13 -45 -4 -5 -7 -14 -8 -20 -1 -5 -8 -23 -15
-40 -6 -16 -13 -34 -15 -40 -8 -36 -49 -131 -58 -137 -6 -4 -7 -8 -2 -8 5 0 3
-6 -3 -14 -7 -8 -13 -22 -15 -32 -2 -11 -16 -45 -30 -76 -15 -32 -26 -61 -25
-64 0 -4 -3 -10 -8 -13 -4 -3 -20 -28 -34 -56 -19 -35 -24 -56 -19 -70 5 -11
9 -23 9 -27 1 -12 -39 -9 -40 2 -1 6 -2 13 -3 18 -1 4 -12 24 -25 45 -77 125
-210 238 -327 278 -44 15 -42 14 -104 30 -25 6 -52 14 -60 17 -28 9 -65 12
-246 16 -152 3 -193 0 -255 -15 -113 -29 -171 -50 -204 -73 -16 -11 -32 -21
-35 -21 -10 -1 -94 -58 -114 -77 -12 -11 -36 -31 -54 -45 -25 -20 -30 -29 -21
-39 15 -18 15 -18 -66 12 -39 14 -81 28 -95 30 -42 6 -103 15 -140 20 -54 8
-208 8 -275 -1 -33 -4 -72 -8 -86 -10 -54 -5 -250 -77 -280 -102 -8 -7 -20
-13 -26 -13 -5 0 -18 -9 -28 -20 -10 -11 -22 -20 -27 -20 -12 0 -36 -22 -152
-139 -57 -57 -106 -99 -110 -93 -3 6 -3 12 2 14 10 4 86 161 102 213 7 22 25
63 40 90 53 96 60 110 80 157 15 35 31 54 65 74 25 14 45 32 45 40 0 8 5 14
11 14 5 0 8 4 4 9 -3 5 -1 12 5 16 5 3 10 2 10 -3 0 -5 8 -12 18 -15 9 -4 35
-17 57 -30 38 -22 75 -36 120 -44 48 -9 212 -9 243 -1 19 5 43 11 53 13 41 8
91 40 148 95 34 32 61 63 61 69 0 5 6 14 14 18 14 8 56 85 56 102 0 5 5 22 11
38 6 15 12 47 13 70 1 23 4 45 7 48 3 2 4 26 2 52 -1 27 -4 68 -5 93 l-3 45
37 0 c21 0 38 -4 38 -10 0 -5 5 -3 10 5 5 8 10 10 10 4 0 -6 12 -11 28 -12 15
-1 44 -3 65 -4 20 -2 37 -5 37 -8 0 -3 8 -6 18 -6 9 -1 38 -4 65 -8 36 -6 47
-5 48 6 4 101 14 171 27 193 4 6 8 19 9 30 5 30 24 75 33 75 5 0 7 8 6 18 -3
19 -16 19 -221 7 -202 -11 -202 -11 -247 -36 -34 -18 -39 -1 -10 28 11 10 38
42 60 71 23 30 42 51 42 48 0 -3 26 22 58 55 59 63 155 160 214 217 l34 32 44
-44 c56 -55 97 -99 98 -106 1 -9 79 -90 87 -90 4 0 29 11 55 24 27 13 51 22
54 19 3 -4 6 -1 6 5 0 12 -68 94 -82 100 -5 2 -8 9 -8 14 0 6 -7 18 -15 27
-81 88 -135 156 -126 159 6 2 11 10 11 18 0 8 4 14 8 14 5 0 25 16 45 35 21
20 37 33 37 29 0 -4 6 -1 13 8 6 9 68 60 137 113 69 54 127 101 130 104 7 11
97 71 105 71 4 0 24 14 45 30 21 17 42 30 48 30 6 0 12 4 14 9 4 12 179 111
195 111 7 0 13 5 13 10 0 6 7 10 15 10 8 0 15 4 15 8 0 4 9 8 21 9 11 1 27 7
35 14 28 23 218 107 231 102 7 -3 13 -11 13 -19z m-1735 -1294 c16 0 23 -4 19
-13 -3 -8 10 -26 30 -42 34 -27 35 -29 19 -47 -15 -17 -18 -17 -25 -3 -5 8 -6
20 -3 25 3 6 0 10 -7 10 -19 0 -100 79 -93 90 4 6 12 4 21 -5 9 -8 26 -15 39
-15z m2511 -196 c27 -9 77 -29 111 -45 34 -16 68 -29 75 -29 8 0 23 -7 34 -15
12 -8 24 -11 28 -8 3 3 6 1 6 -5 0 -7 6 -12 14 -12 7 0 21 -11 32 -24 10 -14
21 -23 26 -20 4 3 8 2 8 -3 0 -4 25 -34 56 -66 60 -64 74 -89 81 -157 3 -25 7
-47 9 -49 2 -2 -1 -10 -7 -17 -7 -8 -7 -14 0 -18 11 -7 -3 -50 -27 -78 -8 -9
-11 -22 -7 -27 3 -6 2 -11 -3 -11 -5 0 -36 -42 -70 -93 -34 -52 -88 -122 -122
-157 -33 -35 -60 -66 -60 -68 0 -5 -41 -42 -46 -42 -1 0 -9 6 -16 13 -7 7 -38
32 -68 54 -30 23 -80 65 -112 95 -58 54 -82 73 -108 85 -8 3 -32 19 -52 35
-27 21 -37 36 -36 54 1 13 7 24 12 24 5 0 7 3 3 6 -3 3 1 23 8 44 7 21 11 41
8 44 -4 3 -1 6 5 6 7 0 11 3 11 8 -1 4 0 9 1 12 1 3 3 12 5 20 7 38 28 110 47
165 11 33 22 71 24 85 11 64 49 196 58 202 15 10 16 10 72 -8z m-3800 -325
c10 -48 16 -79 25 -114 5 -22 11 -56 13 -75 11 -95 64 -269 112 -365 l27 -53
-21 -43 c-37 -79 -61 -139 -56 -139 3 0 0 -8 -5 -18 -6 -11 -12 -32 -15 -47
-3 -16 -9 -31 -13 -34 -7 -6 -10 -13 -18 -51 -2 -8 -13 -37 -24 -64 -12 -27
-22 -59 -23 -72 -1 -13 -5 -24 -8 -24 -12 0 -16 -125 -6 -205 11 -95 12 -105
7 -105 -11 0 -78 23 -101 35 -14 7 -29 14 -35 15 -5 1 -24 7 -40 14 -17 7 -48
19 -70 27 -22 8 -42 16 -45 19 -5 6 -48 26 -117 56 -96 41 -266 130 -297 155
-6 5 -34 25 -63 44 -119 79 -242 225 -258 305 -15 70 -9 156 13 203 28 59 37
63 54 27 16 -33 76 -83 89 -74 5 3 9 0 9 -5 0 -6 3 -10 8 -9 4 1 18 -3 32 -9
61 -24 180 3 225 51 22 24 58 123 50 136 -3 5 -1 11 4 14 6 4 6 18 1 35 -4 16
-6 32 -3 35 4 3 -2 24 -12 47 -18 38 -65 76 -79 62 -3 -4 -6 -1 -6 5 0 7 -7
12 -15 12 -29 0 -15 17 28 33 23 9 56 22 72 28 17 7 32 13 35 14 3 1 14 5 25
9 43 17 51 19 70 23 11 2 44 12 73 23 28 11 54 20 57 20 3 0 22 7 43 16 20 8
55 19 77 24 22 5 67 16 100 23 69 17 77 16 81 -4z m3621 -444 c10 -5 35 -27
58 -47 22 -21 79 -68 127 -105 77 -60 105 -93 80 -93 -5 0 -24 -14 -43 -31
-19 -17 -64 -54 -101 -81 -38 -28 -68 -55 -68 -59 0 -5 -7 -9 -15 -9 -8 0 -15
-4 -15 -8 0 -4 -37 -33 -82 -63 -46 -29 -84 -57 -86 -61 -2 -5 -10 -8 -17 -8
-7 0 -15 -4 -17 -8 -3 -7 -26 -22 -147 -94 -63 -38 -71 -41 -78 -34 -4 3 17
54 46 113 58 115 83 171 79 176 -2 2 4 14 13 28 16 24 75 187 82 224 2 11 15
46 30 78 15 32 27 63 27 71 0 7 3 16 8 20 7 8 9 14 11 47 1 19 4 18 46 -13 25
-18 53 -37 62 -43z m405 -325 c7 -11 17 -20 21 -20 13 0 37 -27 30 -34 -4 -3
-1 -6 6 -6 16 0 129 -105 194 -180 7 -8 32 -31 55 -51 23 -20 42 -42 42 -48 0
-7 5 -9 10 -6 6 3 10 1 10 -5 0 -6 5 -8 12 -4 6 4 8 3 5 -3 -3 -5 6 -23 21
-40 47 -53 60 -71 56 -75 -2 -3 12 -23 31 -45 19 -23 35 -46 35 -52 0 -6 3
-11 8 -11 19 0 72 -151 65 -185 -3 -11 -5 -28 -6 -37 -1 -10 -5 -18 -9 -18 -4
0 -5 -9 -3 -20 2 -11 0 -20 -6 -20 -5 0 -8 -4 -6 -9 2 -8 -37 -55 -65 -76 -7
-6 -35 -24 -63 -39 -27 -16 -53 -33 -56 -38 -3 -6 -9 -9 -13 -8 -6 2 -22 -2
-61 -15 -5 -2 -19 -6 -30 -8 -11 -3 -40 -11 -65 -17 -25 -7 -56 -14 -70 -16
-52 -7 -165 -30 -165 -34 0 -13 -679 -19 -885 -7 -75 4 -176 9 -226 12 -127 5
-144 11 -144 46 0 16 5 29 10 29 6 0 10 6 10 13 0 7 8 20 18 29 9 8 26 27 37
41 11 13 23 23 26 21 4 -2 14 8 24 22 16 25 16 27 -3 42 -17 14 -18 17 -3 34
8 10 22 18 29 18 9 0 12 6 8 15 -5 14 -2 14 22 1 25 -13 31 -12 77 12 86 46
152 122 175 199 10 31 23 48 47 63 18 10 33 24 33 30 0 5 4 9 9 7 5 -1 8 2 8
6 -2 11 65 47 75 40 5 -2 8 0 8 5 0 5 18 17 40 28 22 10 40 23 40 27 0 5 5 5
10 2 6 -3 10 -1 10 5 0 6 12 16 28 22 23 11 91 56 127 86 6 5 24 17 40 28 17
10 32 21 35 24 3 3 23 19 45 35 22 17 42 32 45 35 3 3 43 39 90 80 47 41 87
78 88 83 7 15 52 6 64 -13z m-3938 -712 c-1 -13 -3 -23 -4 -23 -1 0 -2 -56 -4
-125 -2 -112 6 -169 23 -171 3 0 14 -2 24 -4 9 -2 17 0 17 4 0 4 14 8 32 9 36
3 92 41 109 75 7 12 23 35 35 50 13 16 24 36 24 46 0 9 5 22 12 29 6 6 13 22
15 34 4 25 33 61 33 40 0 -8 7 -9 23 -4 24 9 34 9 57 -1 8 -3 55 -19 103 -36
49 -17 99 -39 113 -50 13 -10 30 -18 37 -17 26 6 47 18 42 26 -6 9 21 40 35
40 4 0 7 -11 5 -25 -1 -14 1 -28 6 -31 4 -2 6 -10 4 -17 -6 -15 41 -38 61 -30
8 3 14 1 14 -5 0 -15 42 -23 57 -10 7 6 13 7 13 3 0 -4 6 -2 14 4 15 13 64 7
107 -11 29 -13 29 -17 -4 -116 -20 -61 -21 -62 -1 -82 10 -10 27 -30 36 -42
41 -53 80 -104 91 -118 7 -8 23 -31 37 -50 13 -19 34 -44 45 -56 11 -11 36
-39 55 -63 19 -24 80 -90 135 -148 55 -57 102 -109 103 -114 2 -5 -4 -9 -14
-9 -9 0 -14 -3 -11 -7 4 -3 -4 -13 -17 -22 -13 -9 -65 -47 -115 -86 -106 -82
-237 -175 -246 -175 -3 0 -23 -13 -43 -29 -20 -16 -58 -40 -84 -54 -25 -14
-66 -38 -90 -53 -56 -36 -168 -93 -168 -87 0 3 -6 1 -12 -5 -19 -15 -153 -59
-223 -72 -74 -15 -158 -21 -165 -11 -3 4 -32 18 -65 31 -122 48 -205 131 -230
230 -3 8 -14 49 -25 90 -11 41 -22 91 -25 110 -2 19 -7 46 -11 60 -3 14 -7 39
-9 55 -2 17 -4 30 -5 30 -5 0 -11 157 -11 285 -1 143 6 308 16 405 3 28 7 86
9 131 1 44 6 86 11 94 5 7 9 34 11 59 3 55 2 53 12 47 5 -3 8 -15 6 -28z
m1281 -364 c7 2 16 2 19 -2 4 -3 12 -7 19 -8 7 -2 23 -5 37 -9 14 -3 36 -7 50
-10 14 -3 41 -9 60 -15 19 -6 58 -13 85 -16 53 -7 80 -12 80 -14 0 -5 75 -18
200 -33 11 -1 26 -6 33 -10 6 -5 16 -6 21 -2 5 3 12 1 15 -3 3 -5 28 -9 55 -8
47 2 49 1 44 -23 -2 -13 -12 -30 -21 -37 -9 -8 -13 -14 -9 -14 4 0 -4 -11 -19
-25 -15 -14 -24 -25 -20 -25 4 0 -10 -15 -31 -32 -20 -18 -53 -49 -73 -69 -56
-58 -148 -129 -166 -129 -9 0 -36 19 -61 43 -89 83 -183 180 -183 188 0 4 -17
28 -37 52 -43 50 -64 77 -78 99 -5 9 -25 37 -42 62 -39 55 -40 60 -12 46 11
-7 27 -9 34 -6z"/>
<path d="M2978 5124 c-2 -1 -19 -6 -38 -9 -19 -3 -50 -16 -68 -27 -59 -36 -95
-151 -65 -208 7 -14 13 -30 13 -36 0 -15 54 -74 68 -74 7 0 12 -4 12 -9 0 -5
10 -12 23 -16 12 -4 29 -9 37 -12 36 -11 102 -3 134 17 39 24 82 76 100 123
12 31 12 49 2 92 -2 11 -5 25 -5 32 -2 20 -84 101 -116 113 -30 12 -91 21 -97
14z"/>
<path d="M4129 3848 c0 -2 -2 -12 -4 -22 -2 -10 -9 -22 -16 -26 -6 -5 -12 -29
-13 -54 -1 -61 -16 -62 -33 -3 -13 46 -15 48 -44 42 -18 -4 -29 -3 -29 4 0 6
-4 11 -10 11 -5 0 -10 -22 -10 -49 0 -53 -12 -60 -44 -29 -15 15 -55 16 -78 2
-14 -9 12 -34 34 -34 13 0 18 -5 15 -14 -3 -8 2 -16 14 -19 19 -5 27 -27 9
-27 -5 0 -10 6 -10 13 0 8 -3 8 -9 -2 -5 -8 -15 -16 -23 -17 -7 -2 -26 -6 -43
-9 -16 -3 -31 -10 -33 -15 -2 -5 -11 -6 -20 -3 -13 4 -12 2 3 -10 11 -8 23
-13 26 -11 9 5 69 -16 69 -25 0 -5 -12 -7 -27 -7 -49 2 -56 -12 -26 -51 31
-41 40 -93 16 -93 -10 0 -14 -6 -10 -20 4 -15 -3 -22 -37 -34 -22 -8 -33 -15
-23 -15 9 -1 17 -5 17 -9 0 -10 30 -9 47 1 7 5 14 -6 18 -33 7 -42 2 -60 -18
-60 -7 0 -30 -9 -52 -20 -40 -20 -40 -20 18 -23 23 -1 77 15 77 23 0 9 80 43
87 36 5 -4 -15 -47 -26 -56 -3 -3 -16 -24 -28 -48 -16 -31 -19 -44 -10 -47 24
-9 46 1 69 31 23 29 38 44 49 44 5 0 11 -60 11 -102 -1 -28 14 -30 39 -3 28
29 39 31 39 8 0 -10 7 -27 15 -37 13 -17 15 -18 15 -3 0 9 5 17 11 17 6 0 9 7
5 15 -3 8 -2 15 2 15 5 0 16 17 26 37 l17 36 25 -26 c14 -15 29 -27 34 -27 13
0 18 23 9 48 -12 31 15 41 53 19 24 -14 33 -14 48 -4 25 15 25 33 2 72 -18 29
-18 30 2 40 12 6 21 18 21 28 0 9 4 17 8 17 29 0 31 -1 17 -10 -9 -6 -10 -10
-3 -10 6 0 15 5 18 10 4 6 13 7 23 1 25 -13 41 -3 34 22 -3 12 -8 24 -11 27
-30 26 -51 59 -45 73 3 9 10 14 15 11 5 -3 9 0 9 6 0 6 5 8 10 5 6 -3 10 -2
10 3 0 9 29 22 55 26 12 1 14 27 3 42 -4 6 -31 10 -63 8 -30 -1 -55 0 -55 4 0
4 -13 13 -30 20 -26 12 -28 16 -16 28 8 8 17 14 20 14 13 0 63 58 63 73 0 24
-34 31 -62 13 -15 -10 -26 -12 -30 -6 -3 6 -12 10 -18 10 -7 0 -6 -4 3 -10 8
-5 10 -10 4 -10 -5 0 -18 6 -28 13 -18 13 -18 59 0 88 5 8 3 10 -5 4 -10 -6
-11 -3 -3 12 6 11 7 25 2 33 -10 16 -27 5 -68 -43 -13 -15 -32 -32 -42 -37
-16 -8 -17 -5 -15 25 1 22 -5 42 -16 54 -10 10 -15 23 -11 27 4 5 -2 2 -12 -6
-13 -10 -17 -10 -12 -2 4 6 2 12 -3 12 -6 0 -11 -1 -12 -2z"/>
<path d="M7650 6384 c0 -14 3 -14 15 -4 8 7 15 14 15 16 0 2 -7 4 -15 4 -8 0
-15 -7 -15 -16z"/>
<path d="M7822 5708 c6 -16 13 -27 15 -24 3 3 14 1 24 -5 22 -11 24 -6 7 24
-10 19 -9 20 4 10 12 -10 15 -10 15 3 0 12 -7 14 -29 10 -16 -3 -27 -2 -24 2
3 5 -1 9 -8 9 -11 0 -12 -7 -4 -29z"/>
<path d="M2590 3112 c-35 -8 -80 -24 -99 -37 -44 -27 -111 -95 -111 -111 0 -7
-5 -14 -10 -16 -6 -2 -12 -13 -13 -26 0 -12 -6 -22 -11 -22 -5 0 -7 -3 -3 -6
3 -3 1 -18 -5 -33 -18 -45 -11 -148 13 -199 34 -70 113 -144 187 -175 50 -21
76 -25 130 -23 64 3 152 31 152 49 0 4 4 6 9 3 10 -6 71 58 71 75 0 6 5 7 10
4 6 -3 10 -2 10 4 0 5 8 17 18 27 9 10 17 20 18 23 0 3 6 20 13 36 16 39 20
106 9 170 -10 56 -29 105 -40 105 -5 0 -8 6 -8 14 0 17 -85 107 -94 99 -3 -4
-6 -2 -6 4 0 5 -19 15 -41 22 -81 24 -133 28 -199 13z"/>
</g>
</svg>
